<?xml version="1.0" encoding="UTF-8"?>
<svg id="Layer_1" data-name="Layer 1" xmlns="http://www.w3.org/2000/svg" viewBox="0 0 2272.67 881.95">
  <g>
    <path d="M366.05,271.94h-70.63c-10.62,0-19.93-6.99-19.93-14.95s9.31-14.96,19.93-14.96h100.26c6.67,0,12.3-5.63,12.3-12.3s-5.63-12.3-12.3-12.3h-100.26c-24.43,0-44.3,17.75-44.3,39.56s19.87,39.32,44.3,39.32h70.63c10.49,0,19.7,6.99,19.7,14.95s-9.39,15.43-19.7,15.43h-102.39c-6.65,0-12.06,5.41-12.06,12.06s5.3,12.3,12.06,12.3h102.39c24.43,0,44.3-17.85,44.3-39.8s-19.87-39.32-44.3-39.32Z"/>
    <path d="M492.85,242.03h100.49c6.67,0,12.3-5.63,12.3-12.3s-5.52-12.3-12.3-12.3h-100.49c-23.64,0-42.88,19.23-42.88,42.88v47.88c0,23.64,19.23,42.88,42.88,42.88h100.02c6.9,0,12.3-5.4,12.3-12.3s-5.4-12.3-12.3-12.3h-100.02c-10.25,0-18.27-8.03-18.27-18.27v-47.88c0-10.08,8.2-18.27,18.27-18.27Z"/>
    <path d="M754.27,217.43h-101.92c-6.9,0-12.3,5.3-12.3,12.07s5.4,12.06,12.3,12.06h101.92c9.81,0,17.8,7.98,17.8,17.8v7.84h-91.04c-23.25,0-42.17,18.81-42.17,41.93s18.81,41.93,41.93,41.93h73.71c22.99,0,41.69-18.81,41.69-41.93v-49.77c0-23.12-18.81-41.93-41.93-41.93ZM754.51,326.69h-73.71c-9.68,0-17.56-7.88-17.56-17.56s7.98-17.8,17.8-17.8h91.04v17.8c0,9.68-7.88,17.56-17.56,17.56Z"/>
    <path d="M940.33,217.43h-63.76c-22.86,0-41.45,18.6-41.45,41.46v80.11c0,6.65,5.41,12.07,12.06,12.07s12.06-5.41,12.06-12.07v-80.11c0-9.55,7.77-17.33,17.32-17.33h63.76c9.68,0,17.56,7.77,17.56,17.33,0,6.65,5.31,12.06,11.83,12.06s12.06-5.41,12.06-12.06c0-22.86-18.6-41.46-41.45-41.46Z"/>
    <path d="M1130.17,217.43h-73.24c-23.38,0-42.4,19.02-42.4,42.4v48.83c0,23.38,19.02,42.4,42.4,42.4h98.84c6.78,0,12.3-5.52,12.3-12.3s-5.52-12.06-12.3-12.06h-98.84c-9.94,0-18.04-8.09-18.04-18.04v-9.27h121.37c6.9,0,12.3-5.4,12.3-12.3v-27.26c0-23.38-19.02-42.4-42.4-42.4ZM1056.94,241.8h73.24c9.94,0,18.04,8.09,18.04,18.04v15.19h-109.31v-15.19c0-9.94,8.09-18.04,18.04-18.04Z"/>
    <path d="M1256.02,242.03h100.49c6.67,0,12.3-5.63,12.3-12.3s-5.52-12.3-12.3-12.3h-100.49c-23.64,0-42.88,19.23-42.88,42.88v47.88c0,23.64,19.23,42.88,42.88,42.88h100.02c6.9,0,12.3-5.4,12.3-12.3s-5.4-12.3-12.3-12.3h-100.02c-10.25,0-18.27-8.03-18.27-18.27v-47.88c0-10.08,8.2-18.27,18.27-18.27Z"/>
    <path d="M1507.25,217.43h-63.76c-22.86,0-41.45,18.6-41.45,41.46v80.11c0,6.65,5.41,12.07,12.06,12.07s12.06-5.41,12.06-12.07v-80.11c0-9.55,7.77-17.33,17.32-17.33h63.76c9.68,0,17.56,7.77,17.56,17.33,0,6.65,5.31,12.06,11.83,12.06s12.06-5.41,12.06-12.06c0-22.86-18.6-41.46-41.45-41.46Z"/>
    <path d="M1713.69,217.43h-89.59c-23.51,0-42.64,19.13-42.64,42.64v48.35c0,23.51,19.13,42.64,42.64,42.64h89.59c23.51,0,42.64-19.13,42.64-42.64v-48.35c0-23.51-19.13-42.64-42.64-42.64ZM1713.69,326.46h-89.59c-9.94,0-18.04-8.09-18.04-18.04v-48.35c0-9.94,8.09-18.04,18.04-18.04h89.59c9.94,0,18.04,8.09,18.04,18.04v48.35c0,9.95-8.09,18.04-18.04,18.04Z"/>
    <path d="M2009.24,217.43c-6.9,0-12.3,5.4-12.3,12.3v78.69c0,10.11-7.92,18.04-18.04,18.04h-38.87c-10.11,0-18.04-7.92-18.04-18.04v-78.69c0-6.78-5.52-12.3-12.3-12.3s-12.3,5.4-12.3,12.3v78.69c0,10.11-7.92,18.04-18.04,18.04h-41.24c-10.11,0-18.04-7.92-18.04-18.04v-78.69c0-6.78-5.52-12.3-12.3-12.3s-12.3,5.4-12.3,12.3v78.69c0,23.51,19.13,42.64,42.64,42.64h41.24c11.37,0,22.29-4.68,30.29-12.77,7.85,8.09,18.8,12.77,30.39,12.77h38.87c23.51,0,42.64-19.13,42.64-42.64v-78.69c0-6.78-5.52-12.3-12.3-12.3Z"/>
  </g>
  <g>
    <path d="M380.74,464.52h-72.76c-23.51,0-42.64,19.13-42.64,42.64v145.05c0,6.9,5.4,12.3,12.3,12.3s12.3-5.52,12.3-12.3v-54.3h90.8c23.51,0,42.64-19.13,42.64-42.64v-48.12c0-23.51-19.13-42.64-42.64-42.64ZM380.74,573.31l-90.8.1v-66.25c0-9.94,8.09-18.04,18.04-18.04h72.76c10.08,0,18.27,8.09,18.27,18.04v48.12c0,9.94-8.2,18.04-18.27,18.04Z"/>
    <path d="M571.3,464.52h-63.76c-22.86,0-41.45,18.6-41.45,41.46v80.11c0,6.65,5.41,12.07,12.07,12.07s12.06-5.41,12.06-12.07v-80.11c0-9.55,7.77-17.33,17.32-17.33h63.76c9.68,0,17.56,7.77,17.56,17.33,0,6.65,5.31,12.06,11.83,12.06s12.07-5.41,12.07-12.06c0-22.86-18.6-41.46-41.46-41.46Z"/>
    <path d="M782.48,464.52h-89.59c-23.51,0-42.64,19.13-42.64,42.64v48.35c0,23.51,19.13,42.64,42.64,42.64h89.59c23.51,0,42.64-19.13,42.64-42.64v-48.35c0-23.51-19.13-42.64-42.64-42.64ZM782.48,573.55h-89.59c-9.94,0-18.04-8.09-18.04-18.04v-48.35c0-9.94,8.09-18.04,18.04-18.04h89.59c9.94,0,18.04,8.09,18.04,18.04v48.35c0,9.95-8.09,18.04-18.04,18.04Z"/>
    <path d="M1008.59,398.16c-6.77,0-12.07,5.4-12.07,12.3v54.06h-87.01c-23.51,0-42.64,19.13-42.64,42.64v48.35c0,23.51,19.13,42.64,42.64,42.64h68.73c23.51,0,42.64-19.13,42.64-42.64v-145.05c0-6.9-5.4-12.3-12.3-12.3ZM1001.71,483.93h0v5.16h-.04v-5.16h.04ZM996.52,489.09v66.42c0,9.95-8.2,18.04-18.27,18.04h-68.73c-9.94,0-18.04-8.09-18.04-18.04v-48.35c0-9.94,8.09-18.04,18.04-18.04l1.59-.18v.15h85.42ZM1001.71,469.71h-.04v-5.15h.04v5.15Z"/>
    <path d="M1204.36,464.76c-6.65,0-12.07,5.52-12.07,12.28-.19,38.05-.07,81.71-.02,96.51h-84.62c-9.94,0-18.04-8.09-18.04-18.04v-78.69c0-6.67-5.63-12.3-12.3-12.3s-12.3,5.52-12.3,12.3v78.69c0,23.51,19.13,42.64,42.64,42.64h96.7c6.78,0,12.3-5.52,12.3-12.3v-108.79c0-6.78-5.52-12.3-12.3-12.3Z"/>
    <path d="M1302.96,489.13h100.49c6.67,0,12.3-5.63,12.3-12.3s-5.52-12.3-12.3-12.3h-100.49c-23.64,0-42.88,19.23-42.88,42.88v47.88c0,23.64,19.23,42.88,42.88,42.88h100.02c6.9,0,12.3-5.4,12.3-12.3s-5.4-12.3-12.3-12.3h-100.02c-10.25,0-18.27-8.03-18.27-18.27v-47.88c0-10.08,8.2-18.27,18.27-18.27Z"/>
    <path d="M1521.48,573.55h-25.12c-9.94,0-18.04-8.09-18.04-18.04v-66.86h42.92c6.9,0,12.3-5.3,12.3-12.06s-5.4-12.3-12.3-12.3h-42.92v-53.83c0-6.78-5.52-12.3-12.3-12.3s-12.3,5.4-12.3,12.3v145.05c0,23.51,19.13,42.64,42.64,42.64h25.12c6.9,0,12.3-5.4,12.3-12.3s-5.52-12.3-12.3-12.3Z"/>
    <path d="M1776.02,464.52h-89.59c-23.51,0-42.64,19.13-42.64,42.64v48.35c0,23.51,19.13,42.64,42.64,42.64h89.59c23.51,0,42.64-19.13,42.64-42.64v-48.35c0-23.51-19.13-42.64-42.64-42.64ZM1776.02,573.55h-89.59c-9.94,0-18.04-8.09-18.04-18.04v-48.35c0-9.94,8.09-18.04,18.04-18.04h89.59c9.94,0,18.04,8.09,18.04,18.04v48.35c0,9.95-8.09,18.04-18.04,18.04Z"/>
    <path d="M1964.68,464.52h-92.27c-6.73.41-12,5.81-12,12.3v109.03c0,6.9,5.4,12.3,12.3,12.3s12.3-5.52,12.3-12.3v-96.72h79.66c10.08,0,18.27,8.09,18.27,18.04v78.69c0,6.9,5.3,12.3,12.06,12.3s12.3-5.4,12.3-12.3v-78.69c0-23.51-19.13-42.64-42.64-42.64Z"/>
    <g>
      <path d="M1585.7,420.97c-6.9,0-12.3,5.4-12.3,12.3v8.29c0,6.78,5.52,12.3,12.3,12.3s12.3-5.63,12.3-12.3v-8.29c0-6.78-5.52-12.3-12.3-12.3Z"/>
      <path d="M1585.7,464.52c-6.9,0-12.3,5.3-12.3,12.07v109.26c0,6.9,5.4,12.3,12.3,12.3s12.3-5.52,12.3-12.3v-109.26c0-6.65-5.52-12.07-12.3-12.07Z"/>
    </g>
  </g>
</svg>